Simulation
nRows=42
nColumns=15
endheader
time  TH_x TH_y TH_z SC_y  SC_z  SC_x  AC_y  AC_z  AC_x  GH_y  GH_z  GH_yy  EL_x  PS_y
0.0  0.000000  0.000000  0.000000  -38.56528656233872  2.513820072925744  1.1478314679757793  47.21425687065284  2.387838674330857  1.0484975353147648  48.16833034765679  8.652603077775142  -24.98434623078845  23.403481962957255  120.000000
0.03099999999999998  0.000000  0.000000  0.000000  -38.31351032025474  2.7230436711546164  1.0914681373921737  46.93820366983318  2.6287440686206835  1.1110019673608973  47.980872614771094  9.15133816973195  -24.80626794845668  23.31722775758059  120.000000
0.06199999999999996  0.000000  0.000000  0.000000  -38.087049078024926  2.8248699869249614  0.9789901480522416  46.70433306060582  2.8197225398427466  1.150524934542933  47.815773214027104  9.62578765339266  -24.617216721304565  23.24077991342602  120.000000
0.09299999999999994  0.000000  0.000000  0.000000  -37.914901964705514  2.8779675765095742  0.8274071407650102  46.5199475089726  2.960311299341293  1.192593636593438  47.68072105864241  10.098465240688864  -24.418011364944963  23.184312506464842  120.000000
0.12399999999999992  0.000000  0.000000  0.000000  -37.81788254387487  2.903734060416406  0.657814521706369  46.38496811634391  3.074334006859518  1.2498794769346717  47.56253747984102  10.605459163694263  -24.22715625749636  23.14566417518041  120.000000
0.1549999999999999  0.000000  0.000000  0.000000  -37.80666007364585  2.9165948639550003  0.4910835448947536  46.30476704494713  3.1855863856181905  1.3293140998718107  47.43954333144543  11.191055889815006  -24.069966063258814  23.119117691535326  120.000000
0.1859999999999999  0.000000  0.000000  0.000000  -37.878712959368684  2.9340841172921843  0.3441102504662101  46.28169311043594  3.3119075642125773  1.4366426765257474  47.29117052450547  11.89037410525738  -23.966924646573148  23.10652804180725  120.000000
0.21699999999999986  0.000000  0.000000  0.000000  -38.02482959543048  2.96981917304513  0.22996171248465092  46.31286273096243  3.46557685400464  1.5755641508380507  47.09882275357348  12.726334746756141  -23.93332118164903  23.113036943270647  120.000000
0.24799999999999983  0.000000  0.000000  0.000000  -38.23296418555599  3.0314618285287724  0.15761981386304538  46.39381785503312  3.6543354385630806  1.7468435457330136  46.84562231036513  13.711771629644613  -23.979785995034373  23.145305436282378  120.000000
0.2789999999999998  0.000000  0.000000  0.000000  -38.490704208149154  3.1232785130258747  0.13304131363447141  46.51923649154603  3.8822418736657904  1.9496673116568164  46.519508534103686  14.849542476172092  -24.1105544542364  23.210725000211994  120.000000
0.3099999999999998  0.000000  0.000000  0.000000  -38.78532551247144  3.248213007147186  0.1590772595609302  46.683474668978384  4.149268270932433  2.1824856200647234  46.113281910804076  16.134744199009873  -24.324314403777144  23.31467321772788  120.000000
0.34099999999999975  0.000000  0.000000  0.000000  -39.103564104274376  3.4086429932928284  0.23621021281043017  46.8781159609994  4.452307024953832  2.444005231822609  45.62604381126999  17.554969312916583  -24.613436215966495  23.45808384177986  120.000000
0.3719999999999998  0.000000  0.000000  0.000000  -39.43113836303276  3.6063007669204348  0.3617886054564947  47.09429583754939  4.786352942277025  2.731490532280581  45.062006706278765  19.09423003863849  -24.966333929654823  23.635645167053553  120.000000
0.40299999999999975  0.000000  0.000000  0.000000  -39.75314669228042  3.8421396048654985  0.5309348241975539  47.32060145018636  5.145457890031279  3.0415776926431497  44.43040558934282  20.733318304306586  -25.367828450911965  23.835323150439493  120.000000
0.4339999999999997  0.000000  0.000000  0.000000  -40.05491859289975  4.115907977344384  0.7370184840160108  47.54520496312002  5.523707984900211  3.3700020775256108  43.74381420860468  22.45168881738503  -25.802238590340703  24.03981942517264  120.000000
0.4649999999999997  0.000000  0.000000  0.000000  -40.3241082225103  4.425899368132295  0.9732699424067501  47.75586467799953  5.916180319457651  3.712798109575708  43.017641653902295  24.227270600088612  -26.253951865173846  24.229973357311565  120.000000
0.49599999999999966  0.000000  0.000000  0.000000  -40.55256256141861  4.7686540546755225  1.233801924544514  47.94227152780964  6.320572589018445  4.065735395089782  42.26911580147778  26.03742926572669  -26.709299238314216  24.38880212833413  120.000000
0.5269999999999997  0.000000  0.000000  0.000000  -40.738687076110445  5.138959540510646  1.5148063206758349  48.09700433811907  6.738775578763977  4.424187352625668  41.51731382483834  27.859292968088663  -27.15630580616634  24.50488784389001  120.000000
0.5579999999999996  0.000000  0.000000  0.000000  -40.888598687596726  5.530506890315054  1.8141254277282453  48.21553972767167  7.177881643449484  4.783736915423806  40.78290158022686  29.670453915450885  -27.58546635633417  24.574098128335738  120.000000
0.5889999999999996  0.000000  0.000000  0.000000  -41.01596300239533  5.936610760845699  2.131348766400529  48.29588397204551  7.649010205346043  5.140639602172547  40.08742354433838  31.449943943050297  -27.991068200269133  24.598482669782747  120.000000
0.6199999999999996  0.000000  0.000000  0.000000  -41.14064493640021  6.350789633983941  2.468769545752588  48.337591057016944  8.163785616122274  5.491889761696197  39.452352433947  33.17952261248321  -28.373307354848972  24.58366607869202  120.000000
0.6509999999999996  0.000000  0.000000  0.000000  -41.287122480669076  6.766798345923062  2.828432414935568  48.34290128126235  8.733387026536947  5.837566444096928  38.89717102874006  34.84546565426812  -28.741783444823728  24.535523399825447  120.000000
0.6819999999999995  0.000000  0.000000  0.000000  -41.48270721903451  7.178147753388933  3.2116963753817602  48.317643236669994  9.365571875985118  6.182128455714296  38.43751169982113  36.439935003589994  -29.117238022744893  24.457101548280214  120.000000
0.7129999999999995  0.000000  0.000000  0.000000  -41.75435207691874  7.5781007111195215  3.622996034340716  48.27253322808538  10.060130142397254  6.531490937395275  38.083287985033124  37.9608410476467  -29.53099832934056  24.347521277007615  120.000000
0.7439999999999996  0.000000  0.000000  0.000000  -42.124796718010835  7.960403477418569  4.070061968137545  48.22181905884669  10.809277458190786  6.891884548657933  37.837641577345224  39.40958077236869  -30.018314842525818  24.202752840459667  120.000000
0.7749999999999995  0.000000  0.000000  0.000000  -42.60891515850312  8.32022606922686  4.562690833674953  48.180966501047806  11.600413676701542  7.268827607346998  37.69615584722326  40.788312299525245  -30.608657530666427  24.017102823864004  120.000000
0.8059999999999995  0.000000  0.000000  0.000000  -43.21096132223765  8.654975176499478  5.113193180596472  48.16362507977387  12.417323281513093  7.665500340501265  37.64625783162273  42.097085559028706  -31.31516064561955  23.785499202846477  120.000000
0.8369999999999994  0.000000  0.000000  0.000000  -43.92323768014774  8.964712979750685  5.73604128427582  48.17944987683813  13.24081659858735  8.081381628893812  37.6670094223298  43.33249875496828  -32.127214958254115  23.50580593576724  120.000000
0.8679999999999994  0.000000  0.000000  0.000000  -44.72777852486866  9.251721789624098  6.447062937763441  48.23386171965469  14.048820467197498  8.512119681228448  37.72988546699948  44.48776811882778  -33.009088364217895  23.180400705739377  120.000000
0.8989999999999994  0.000000  0.000000  0.000000  -45.60132221685378  9.519276088096358  7.261422260146121  48.33031774466302  14.81672757037024  8.950649032973429  37.800665618224784  45.554529672257495  -33.907250610227344  22.81653766065533  120.000000
0.9299999999999994  0.000000  0.000000  0.000000  -46.52170422479967  9.769989760616957  8.192681309538434  48.47358769896081  15.517954255437843  9.387780833588245  37.84273170109911  46.52499621476323  -34.763692443118835  22.42540325239167  120.000000
0.9609999999999993  0.000000  0.000000  0.000000  -47.47278893083952  10.004814737071086  9.2534496132615  48.6719596330725  16.124682519021125  9.811980560271966  37.82169064194275  47.393550976518625  -35.529871166660065  22.02057322465232  120.000000
0.9919999999999993  0.000000  0.000000  0.000000  -48.4467826361845  10.223190932103037  10.455542571048005  48.93789565758464  16.610123666444483  10.210104217245295  37.71091092658817  48.157297177676604  -36.17779204502244  21.615782287101084  120.000000
1.0229999999999992  0.000000  0.000000  0.000000  -49.44331299902245  10.422876144968244  11.810355228448875  49.28599948288432  16.950807932164544  10.567461357180205  37.49584757892518  48.81596440654236  -36.70467061075417  21.2232707327011  120.000000
1.0539999999999994  0.000000  0.000000  0.000000  -50.4661090324092  10.599732697468898  13.327888596901733  49.728448341815024  17.12888471277386  10.868360217756443  37.17622603544805  49.370823703330984  -37.13040290683892  20.85245107507986  120.000000
1.0849999999999993  0.000000  0.000000  0.000000  -51.51842269856395  10.750134295286278  15.016281760816913  50.27022180716664  17.128497738986187  11.096190310737352  36.76521614280905  49.82554758691808  -37.48899138461947  20.508687844169174  120.000000
1.1159999999999992  0.000000  0.000000  0.000000  -52.5980436197391  10.873581485665163  16.883410323981018  50.90626204468356  16.929675313752238  11.23115882132853  36.28579562042656  50.18782293447959  -37.817482665286164  20.19364270948991  120.000000
1.1469999999999991  0.000000  0.000000  0.000000  -53.6933542217769  10.971581465590356  18.93373527126428  51.619741201385246  16.511746987360276  11.251389791984952  35.766898529386715  50.46827146629653  -38.14545686101555  19.905854680315315  120.000000
1.1779999999999993  0.000000  0.000000  0.000000  -54.78134474773122  11.045984867625465  21.162541923183586  52.38324268995007  15.859009935610977  11.135716683621636  35.238842510161334  50.679696174764025  -38.48839144578502  19.64100053843439  120.000000
1.2089999999999992  0.000000  0.000000  0.000000  -55.8291691913277  11.099517316664484  23.552485919562212  53.162381348098855  14.962061476903484  10.866070174067135  34.72973962153561  50.836313531216625  -38.84730113671564  19.393843611580213  120.000000
1.239999999999999  0.000000  0.000000  0.000000  -56.798009929142445  11.135538993101635  26.07117025324548  53.92024582880939  13.820891282786006  10.429448931653077  34.26419766157798  50.95167389626265  -39.21380047772729  19.16036742941798  120.000000
1.2709999999999992  0.000000  0.000000  0.000000  -57.645647792570536  11.157192233487642  28.672543511019658  54.61959682538972  12.44786071869791  9.818582639045893  33.86254881041374  51.035218239609556  -39.57726497796566  18.93826174009547  120.000000
